# xmcd
#
# Track frame offsets:
#	182
#	16795
#	36812
#	61557
#	78922
#	97767
#	119967
#	146690
#	180040
#	199057
#	227510
#	250905
#	268650
#
# Disc length: 3878 seconds
#
# Revision: 5
# Processed by: cddbd v1.5.2PL0 Copyright (c) Steve Scherf et al.
# Submitted via: audiograbber 1.83.01
#
DISCID=9c0f240d
DTITLE=Various Artist - The Blues Collection 35 -- Clarence "Gatemouth" Brown 
DTITLE=Just Got Lucky
DYEAR=1995
DGENRE=Blues
TTITLE0=Clarence "Gatemouth" Brown - Pressure Cooker
TTITLE1=Clarence "Gatemouth" Brown - Let The Good Times Roll
TTITLE2=Clarence "Gatemouth" Brown - Ain't That Just Like A Woman
TTITLE3=Clarence "Gatemouth" Brown - Sad Sad Hour
TTITLE4=Clarence "Gatemouth" Brown - Choo Choo Boogie
TTITLE5=Clarence "Gatemouth" Brown - Slow Down
TTITLE6=Clarence "Gatemouth" Brown - She Winked Her Eye
TTITLE7=Clarence "Gatemouth" Brown - Justice Blues
TTITLE8=Clarence "Gatemouth" Brown - Salt Pork West Virginia
TTITLE9=Clarence "Gatemouth" Brown - Taking My Chance
TTITLE10=Clarence "Gatemouth" Brown - Ain't Nobody Here But Us Chickens
TTITLE11=Clarence "Gatemouth" Brown - Just Got Lucky
TTITLE12=Clarence "Gatemouth" Brown - Cold Storage
EXTD=
EXTT0=
EXTT1=
EXTT2=
EXTT3=
EXTT4=
EXTT5=
EXTT6=
EXTT7=
EXTT8=
EXTT9=
EXTT10=
EXTT11=
EXTT12=
PLAYORDER=
